<svg version="1.2" xmlns="http://www.w3.org/2000/svg" viewBox="0 0 156 50" width="156" height="50"><style>tspan{white-space:pre}.a{fill:#fff}.b{fill:#ffac00}.c{font-size: 35px;fill: #ffffff;font-weight: 400;font-family: "DejaVuSans", "DejaVu Sans"}.d{fill:#1a685b}</style><path class="a" d="m8.9 27.2c-7.1 5.9-8.9 16.2-8.9 20.6 0 1 0.4 1.9 0.6 2.2 6.9-7.9 13.5-11.9 16-13 11-2.9 7.5-4.7 4.3-5.2 14-2 12.8-4.1 10.4-4.9 5.2-0.3 3.4-2.2 1.9-3.1 3.7-2.8 6-7.8 6.7-9.9 2.5-5.9 2.3-11.7 1.9-13.9-0.5 0.5-1.5 1-1.9 1.2-6.6 8.7-14.6 12.9-17.8 13.9-6.9 2.2-3.5 3.4-0.9 3.7-12.8 2.7-12.3 4.7-10.4 5.3-3.5 0.2-2.7 2.1-1.9 3.1z"/><path class="b" d="m41.4 1.8c0 0-6 6.7-12.2 11-4.5 3.2-9.7 4.1-9.6 4.6 0.3 0.5 2.5 0.6 4.7 0.1 1.9-0.6 3.9-1.7 4.9-2.5-1.6 2.3-3.2 3.5-7.9 5.6-4.7 2.1-10 1.6-10.1 2.7-0.1 1.1 8.6 0.7 14.7-2.5 0 0-4.4 2.4-8.1 3.3-3.8 0.9-9 0.8-8.7 1.7 0.3 1 10.6 0.3 17.7-3.1 0 0-3.1 2-7.5 3.2-4.3 1.2-7.6 0.7-7.6 1.6-0.1 0.9 7.4 1.4 15.9-2.8 0 0-2.6 1.8-5.6 2.8-2.7 0.9-5.7 0.5-5.6 1.6 0.1 1 23.7 0.3 25-27.3z"/><text style="transform:matrix(1,0,0,1,18.508,40.89)" ><tspan x="0" y="0" class="c">LTLHelp
</tspan></text><path class="d" d="m-0.4 47.2c0 0 6.3-6.5 12.7-10.6 4.6-2.9 9.8-3.7 9.7-4.1-0.2-0.6-2.4-0.8-4.7-0.3-1.9 0.4-3.9 1.5-4.9 2.3 1.6-2.3 3.2-3.4 8-5.3 4.9-1.9 10-1.2 10.2-2.3 0.2-1.1-8.6-1.1-14.7 1.9 0 0 4.4-2.3 8.2-3 3.8-0.8 9-0.4 8.7-1.4-0.3-1-10.5-0.6-17.8 2.5 0 0 3.2-1.9 7.6-2.9 4.4-1.1 7.6-0.5 7.7-1.3 0.1-0.9-7.4-1.7-16 2.1 0 0 2.7-1.7 5.7-2.6 2.7-0.7 5.8-0.3 5.7-1.3-0.1-1-23.7-1.3-26.1 26.3z"/></svg>